<?xml version="1.0" encoding="utf-8"?>
<!-- Generator: Adobe Illustrator 18.0.0, SVG Export Plug-In . SVG Version: 6.00 Build 0)  -->
<!DOCTYPE svg PUBLIC "-//W3C//DTD SVG 1.1//EN" "http://www.w3.org/Graphics/SVG/1.1/DTD/svg11.dtd">
<svg version="1.1" id="Layer_1" xmlns="http://www.w3.org/2000/svg" xmlns:xlink="http://www.w3.org/1999/xlink" x="0px" y="0px"
	 width="528.7px" height="532.1px" viewBox="0 0 528.7 532.1" enable-background="new 0 0 528.7 532.1" xml:space="preserve">
<g>
	<g>
		<g>
			<path fill="#00CCFF" d="M312.1,128c1.3,0,2.3,1,2.3,2.3c0,1.3-1,2.3-2.3,2.3c-1.3,0-2.3-1-2.3-2.3C309.8,129,310.8,128,312.1,128
				 M276.6,136v-21.8c5.5,1.2,10.8,3,15.8,5.4c5.4,2.5,10.5,5.7,15.1,9.3c-0.1,0.4-0.2,0.9-0.2,1.4c0,2.6,2.1,4.7,4.8,4.7
				c2.6,0,4.8-2.1,4.8-4.7c0-2.6-2.1-4.8-4.8-4.8c-0.8,0-1.6,0.2-2.3,0.6c-4.9-3.8-10.2-7.1-15.8-9.7c-6-2.8-12.3-4.9-18.8-6.1
				l-2.1-0.4v25.5C274.2,135.6,275.4,135.8,276.6,136z M216.6,128c-1.3,0-2.3,1-2.3,2.3c0,1.3,1,2.3,2.3,2.3c1.3,0,2.3-1,2.3-2.3
				C218.9,129,217.9,128,216.6,128z M312.1,255.6c1.3,0,2.3-1,2.3-2.3c0-1.3-1-2.3-2.3-2.3c-1.3,0-2.3,1-2.3,2.3
				C309.8,254.6,310.8,255.6,312.1,255.6z M276.6,247.6v21.8c5.5-1.2,10.8-3,15.8-5.4c5.4-2.5,10.5-5.7,15.1-9.3
				c-0.1-0.4-0.2-0.9-0.2-1.4c0-2.6,2.1-4.8,4.8-4.8c2.6,0,4.8,2.1,4.8,4.8c0,2.6-2.1,4.8-4.8,4.8c-0.8,0-1.6-0.2-2.3-0.6
				c-4.9,3.8-10.2,7.1-15.8,9.7c-6,2.8-12.3,4.9-18.8,6.1l-2.1,0.4v-25.5C274.2,248.1,275.4,247.8,276.6,247.6z M216.6,255.6
				c-1.3,0-2.3-1-2.3-2.3c0-1.3,1-2.3,2.3-2.3c1.3,0,2.3,1,2.3,2.3C218.9,254.6,217.9,255.6,216.6,255.6z M200.5,239.5
				c0,1.3,1,2.3,2.3,2.3c1.3,0,2.3-1,2.3-2.3c0-1.3-1-2.3-2.3-2.3C201.5,237.3,200.5,238.3,200.5,239.5z M208.6,204.1h-21.8
				c1.2,5.5,3,10.8,5.4,15.8c2.5,5.4,5.7,10.5,9.3,15.1c0.4-0.1,0.9-0.2,1.4-0.2c2.6,0,4.8,2.1,4.8,4.8c0,2.6-2.1,4.8-4.8,4.8
				c-2.6,0-4.8-2.1-4.8-4.8c0-0.8,0.2-1.6,0.6-2.3c-3.8-4.9-7.1-10.2-9.7-15.8c-2.8-6-4.9-12.3-6.1-18.8l-0.4-2.1h25.5
				C208.1,201.7,208.3,202.9,208.6,204.1z M200.5,144.1c0-1.3,1-2.3,2.3-2.3c1.3,0,2.3,1,2.3,2.3c0,1.3-1,2.3-2.3,2.3
				C201.5,146.4,200.5,145.3,200.5,144.1z M208.6,179.6h-21.8c1.2-5.5,3-10.8,5.4-15.8c2.5-5.4,5.7-10.5,9.3-15.1
				c0.4,0.1,0.9,0.2,1.4,0.2c2.6,0,4.8-2.1,4.8-4.8c0-2.6-2.1-4.8-4.8-4.8c-2.6,0-4.8,2.1-4.8,4.8c0,0.8,0.2,1.6,0.6,2.3
				c-3.8,4.9-7.1,10.2-9.7,15.8c-2.8,6-4.9,12.3-6.1,18.8l-0.4,2.1h25.5C208.1,181.9,208.3,180.7,208.6,179.6z M252.1,247.6v21.8
				c-5.5-1.2-10.8-3-15.8-5.4c-5.4-2.5-10.5-5.7-15.1-9.3c0.1-0.4,0.2-0.9,0.2-1.4c0-2.6-2.1-4.8-4.8-4.8c-2.6,0-4.8,2.1-4.8,4.8
				c0,2.6,2.1,4.8,4.8,4.8c0.8,0,1.6-0.2,2.3-0.6c4.9,3.8,10.2,7.1,15.8,9.7c6,2.8,12.3,4.9,18.8,6.1l2.1,0.4v-25.5
				C254.5,248.1,253.3,247.8,252.1,247.6z M328.2,239.5c0,1.3-1,2.3-2.3,2.3c-1.3,0-2.3-1-2.3-2.3c0-1.3,1-2.3,2.3-2.3
				C327.2,237.3,328.2,238.3,328.2,239.5z M320.1,204.1H342c-1.2,5.5-3,10.8-5.4,15.8c-2.5,5.4-5.7,10.5-9.3,15.1
				c-0.4-0.1-0.9-0.2-1.4-0.2c-2.6,0-4.7,2.1-4.7,4.8c0,2.6,2.1,4.8,4.7,4.8c2.6,0,4.8-2.1,4.8-4.8c0-0.8-0.2-1.6-0.6-2.3
				c3.8-4.9,7.1-10.2,9.7-15.8c2.8-6,4.9-12.3,6.1-18.8l0.4-2.1h-25.5C320.6,201.7,320.4,202.9,320.1,204.1z M328.2,144.1
				c0-1.3-1-2.3-2.3-2.3c-1.3,0-2.3,1-2.3,2.3c0,1.3,1,2.3,2.3,2.3C327.2,146.4,328.2,145.3,328.2,144.1z M320.1,179.6H342
				c-1.2-5.5-3-10.8-5.4-15.8c-2.5-5.4-5.7-10.5-9.3-15.1c-0.4,0.1-0.9,0.2-1.4,0.2c-2.6,0-4.7-2.1-4.7-4.8c0-2.6,2.1-4.8,4.7-4.8
				c2.6,0,4.8,2.1,4.8,4.8c0,0.8-0.2,1.6-0.6,2.3c3.8,4.9,7.1,10.2,9.7,15.8c2.8,6,4.9,12.3,6.1,18.8l0.4,2.1h-25.5
				C320.6,181.9,320.4,180.7,320.1,179.6z M252.1,136v-21.8c-5.5,1.2-10.8,3-15.8,5.4c-5.4,2.5-10.5,5.7-15.1,9.3
				c0.1,0.4,0.2,0.9,0.2,1.4c0,2.6-2.1,4.7-4.8,4.7c-2.6,0-4.8-2.1-4.8-4.7c0-2.6,2.1-4.8,4.8-4.8c0.8,0,1.6,0.2,2.3,0.6
				c4.9-3.8,10.2-7.1,15.8-9.7c6-2.8,12.3-4.9,18.8-6.1l2.1-0.4v25.5C254.5,135.6,253.3,135.8,252.1,136z"/>
			<path fill="#00CCFF" d="M153.9,184.9c1.7-27.8,13.7-52.9,32.2-71.4c18.5-18.5,43.5-30.5,71.4-32.2v3.2
				c-26.9,1.7-51.2,13.3-69.1,31.3c-17.9,17.9-29.6,42.2-31.3,69.1H153.9z M257.5,302.2c-27.8-1.7-52.9-13.7-71.4-32.2
				c-18.5-18.5-30.5-43.5-32.2-71.4h3.2c1.7,26.9,13.3,51.2,31.3,69.1c17.9,17.9,42.2,29.6,69.1,31.3V302.2z M374.8,198.7
				c-1.7,27.8-13.7,52.9-32.2,71.4c-18.5,18.5-43.5,30.5-71.4,32.2V299c26.9-1.7,51.2-13.3,69.1-31.3c17.9-17.9,29.6-42.2,31.3-69.1
				H374.8z M271.2,81.4c27.8,1.7,52.9,13.7,71.4,32.2c18.5,18.5,30.5,43.5,32.2,71.4h-3.2c-1.7-26.9-13.3-51.2-31.3-69.1
				c-17.9-17.9-42.2-29.6-69.1-31.3V81.4z"/>
			<path fill-rule="evenodd" clip-rule="evenodd" fill="#00C5BB" d="M264.4,140.4c28.4,0,51.4,23,51.4,51.4
				c0,28.4-23,51.4-51.4,51.4c-28.4,0-51.4-23-51.4-51.4C212.9,163.4,236,140.4,264.4,140.4 M264.4,132.8c32.6,0,59,26.4,59,59
				c0,32.6-26.4,59-59,59c-32.6,0-59-26.4-59-59C205.3,159.2,231.8,132.8,264.4,132.8z"/>
			<path fill-rule="evenodd" clip-rule="evenodd" fill="#FFFFFF" d="M338.6,124.5c1.5,0,2.8,1.2,2.8,2.8c0,1.5-1.2,2.8-2.8,2.8
				c-1.5,0-2.8-1.2-2.8-2.8C335.8,125.7,337.1,124.5,338.6,124.5"/>
			<path fill-rule="evenodd" clip-rule="evenodd" fill="#FFFFFF" d="M189.8,124.5c-1.5,0-2.8,1.2-2.8,2.8c0,1.5,1.2,2.8,2.8,2.8
				c1.5,0,2.8-1.2,2.8-2.8C192.5,125.7,191.3,124.5,189.8,124.5"/>
			<path fill-rule="evenodd" clip-rule="evenodd" fill="#00C5BB" d="M243.1,142.9V97.2c-6.6,1.4-13.1,3.7-19.2,6.5
				c-6.5,3.1-12.7,6.9-18.3,11.3c0.2,0.5,0.3,1.1,0.3,1.7c0,3.2-2.6,5.8-5.8,5.8c-3.2,0-5.8-2.6-5.8-5.8c0-3.2,2.6-5.8,5.8-5.8
				c1,0,2,0.3,2.8,0.7c5.9-4.6,12.4-8.6,19.2-11.8c7.2-3.4,14.9-6,22.8-7.4l2.5-0.5v50.9H243.1z"/>
			<path fill-rule="evenodd" clip-rule="evenodd" fill="#00C5BB" d="M262.4,139V78.3c-2.2-0.8-3.7-2.9-3.7-5.4
				c0-3.2,2.6-5.8,5.8-5.8c3.2,0,5.8,2.6,5.8,5.8c0,2.4-1.4,4.4-3.5,5.3V139H262.4z"/>
			<path fill-rule="evenodd" clip-rule="evenodd" fill="#00C5BB" d="M281.5,142.9V92l2.5,0.5c7.9,1.4,15.6,4,22.8,7.4
				c6.8,3.2,13.3,7.2,19.1,11.8c0.8-0.4,1.7-0.7,2.7-0.7c3.2,0,5.8,2.6,5.8,5.8c0,3.2-2.6,5.8-5.8,5.8c-3.2,0-5.8-2.6-5.8-5.8
				c0-0.6,0.1-1.2,0.3-1.8c-5.6-4.3-11.7-8.1-18.2-11.2c-6.1-2.9-12.6-5.1-19.2-6.5v45.7H281.5z"/>
			<path fill-rule="evenodd" clip-rule="evenodd" fill="#FFFFFF" d="M328.7,113.9c1.5,0,2.8,1.2,2.8,2.8c0,1.5-1.2,2.8-2.8,2.8
				c-1.5,0-2.8-1.2-2.8-2.8C326,115.2,327.2,113.9,328.7,113.9"/>
			<path fill-rule="evenodd" clip-rule="evenodd" fill="#FFFFFF" d="M200,113.9c-1.5,0-2.8,1.2-2.8,2.8c0,1.5,1.2,2.8,2.8,2.8
				c1.5,0,2.8-1.2,2.8-2.8C202.8,115.2,201.5,113.9,200,113.9"/>
			<path fill-rule="evenodd" clip-rule="evenodd" fill="#FFFFFF" d="M264.5,70.2c1.5,0,2.8,1.2,2.8,2.8c0,1.5-1.2,2.8-2.8,2.8
				c-1.5,0-2.8-1.2-2.8-2.8C261.7,71.4,262.9,70.2,264.5,70.2"/>
			<path fill-rule="evenodd" clip-rule="evenodd" fill="#00C5BB" d="M243.1,240.7v45.7c-6.6-1.4-13.1-3.7-19.2-6.5
				c-6.5-3.1-12.7-6.9-18.3-11.3c0.2-0.5,0.3-1.1,0.3-1.7c0-3.2-2.6-5.8-5.8-5.8c-3.2,0-5.8,2.6-5.8,5.8s2.6,5.8,5.8,5.8
				c1,0,2-0.3,2.8-0.7c5.9,4.6,12.4,8.6,19.2,11.8c7.2,3.4,14.9,6,22.8,7.4l2.5,0.5v-50.9H243.1z"/>
			<path fill-rule="evenodd" clip-rule="evenodd" fill="#00C5BB" d="M262.4,244.6v60.7c-2.2,0.8-3.7,2.9-3.7,5.4
				c0,3.2,2.6,5.8,5.8,5.8c3.2,0,5.8-2.6,5.8-5.8c0-2.4-1.4-4.4-3.5-5.3v-60.8H262.4z"/>
			<path fill-rule="evenodd" clip-rule="evenodd" fill="#00C5BB" d="M281.5,240.7v50.9l2.5-0.5c7.9-1.4,15.6-4,22.8-7.4
				c6.8-3.2,13.3-7.2,19.1-11.8c0.8,0.4,1.7,0.7,2.7,0.7c3.2,0,5.8-2.6,5.8-5.8s-2.6-5.8-5.8-5.8c-3.2,0-5.8,2.6-5.8,5.8
				c0,0.6,0.1,1.2,0.3,1.8c-5.6,4.3-11.7,8.1-18.2,11.2c-6.1,2.9-12.6,5.1-19.2,6.5v-45.7H281.5z"/>
			<path fill-rule="evenodd" clip-rule="evenodd" fill="#FFFFFF" d="M328.7,269.7c1.5,0,2.8-1.2,2.8-2.8c0-1.5-1.2-2.8-2.8-2.8
				c-1.5,0-2.8,1.2-2.8,2.8C326,268.4,327.2,269.7,328.7,269.7"/>
			<path fill-rule="evenodd" clip-rule="evenodd" fill="#FFFFFF" d="M200,269.7c-1.5,0-2.8-1.2-2.8-2.8c0-1.5,1.2-2.8,2.8-2.8
				c1.5,0,2.8,1.2,2.8,2.8C202.8,268.4,201.5,269.7,200,269.7"/>
			<path fill-rule="evenodd" clip-rule="evenodd" fill="#FFFFFF" d="M264.5,313.5c1.5,0,2.8-1.2,2.8-2.8c0-1.5-1.2-2.8-2.8-2.8
				c-1.5,0-2.8,1.2-2.8,2.8C261.7,312.2,262.9,313.5,264.5,313.5"/>
			<path fill-rule="evenodd" clip-rule="evenodd" fill="#00C5BB" d="M313.2,170.5H359c-1.4-6.6-3.7-13.1-6.5-19.2
				c-3.1-6.5-6.9-12.7-11.3-18.3c-0.5,0.2-1.1,0.3-1.7,0.3c-3.2,0-5.8-2.6-5.8-5.8c0-3.2,2.6-5.8,5.8-5.8c3.2,0,5.8,2.6,5.8,5.8
				c0,1-0.3,2-0.7,2.8c4.6,5.9,8.6,12.4,11.8,19.2c3.4,7.2,6,14.9,7.4,22.8l0.5,2.5h-50.9V170.5z"/>
			<path fill-rule="evenodd" clip-rule="evenodd" fill="#00C5BB" d="M317.2,189.8h60.7c0.8-2.2,2.9-3.7,5.4-3.7
				c3.2,0,5.8,2.6,5.8,5.8c0,3.2-2.6,5.8-5.8,5.8c-2.4,0-4.4-1.4-5.3-3.5h-60.8V189.8z"/>
			<path fill-rule="evenodd" clip-rule="evenodd" fill="#00C5BB" d="M313.2,208.9h50.9l-0.5,2.5c-1.4,7.9-4,15.6-7.4,22.8
				c-3.2,6.8-7.2,13.3-11.8,19.1c0.4,0.8,0.7,1.7,0.7,2.7c0,3.2-2.6,5.8-5.8,5.8c-3.2,0-5.8-2.6-5.8-5.8c0-3.2,2.6-5.8,5.8-5.8
				c0.6,0,1.2,0.1,1.8,0.3c4.3-5.6,8.1-11.7,11.2-18.2c2.9-6.1,5.1-12.6,6.5-19.2h-45.7V208.9z"/>
			<path fill-rule="evenodd" clip-rule="evenodd" fill="#FFFFFF" d="M342.2,256.2c0,1.5-1.2,2.8-2.8,2.8s-2.8-1.2-2.8-2.8
				c0-1.5,1.2-2.8,2.8-2.8S342.2,254.6,342.2,256.2"/>
			<path fill-rule="evenodd" clip-rule="evenodd" fill="#FFFFFF" d="M342.2,127.5c0-1.5-1.2-2.8-2.8-2.8s-2.8,1.2-2.8,2.8
				s1.2,2.8,2.8,2.8S342.2,129,342.2,127.5"/>
			<path fill-rule="evenodd" clip-rule="evenodd" fill="#FFFFFF" d="M386,191.9c0,1.5-1.2,2.8-2.8,2.8s-2.8-1.2-2.8-2.8
				c0-1.5,1.2-2.8,2.8-2.8S386,190.4,386,191.9"/>
			<path fill-rule="evenodd" clip-rule="evenodd" fill="#00C5BB" d="M215.5,170.5h-45.7c1.4-6.6,3.7-13.1,6.5-19.2
				c3.1-6.5,6.9-12.7,11.3-18.3c0.5,0.2,1.1,0.3,1.7,0.3c3.2,0,5.8-2.6,5.8-5.8c0-3.2-2.6-5.8-5.8-5.8c-3.2,0-5.8,2.6-5.8,5.8
				c0,1,0.3,2,0.7,2.8c-4.6,5.9-8.6,12.4-11.8,19.2c-3.4,7.2-6,14.9-7.4,22.8l-0.5,2.5h50.9V170.5z"/>
			<path fill-rule="evenodd" clip-rule="evenodd" fill="#00C5BB" d="M211.5,189.8h-60.7c-0.8-2.2-2.9-3.7-5.4-3.7
				c-3.2,0-5.8,2.6-5.8,5.8c0,3.2,2.6,5.8,5.8,5.8c2.4,0,4.4-1.4,5.3-3.5h60.8V189.8z"/>
			<path fill-rule="evenodd" clip-rule="evenodd" fill="#00C5BB" d="M215.5,208.9h-50.9l0.5,2.5c1.4,7.9,4,15.6,7.4,22.8
				c3.2,6.8,7.2,13.3,11.8,19.1c-0.4,0.8-0.7,1.7-0.7,2.7c0,3.2,2.6,5.8,5.8,5.8c3.2,0,5.8-2.6,5.8-5.8c0-3.2-2.6-5.8-5.8-5.8
				c-0.6,0-1.2,0.1-1.8,0.3c-4.3-5.6-8.1-11.7-11.2-18.2c-2.9-6.1-5.1-12.6-6.5-19.2h45.7V208.9z"/>
			<path fill-rule="evenodd" clip-rule="evenodd" fill="#FFFFFF" d="M186.5,256.2c0,1.5,1.2,2.8,2.8,2.8c1.5,0,2.8-1.2,2.8-2.8
				c0-1.5-1.2-2.8-2.8-2.8C187.7,253.4,186.5,254.6,186.5,256.2"/>
			<path fill-rule="evenodd" clip-rule="evenodd" fill="#FFFFFF" d="M186.5,127.5c0-1.5,1.2-2.8,2.8-2.8c1.5,0,2.8,1.2,2.8,2.8
				s-1.2,2.8-2.8,2.8C187.7,130.2,186.5,129,186.5,127.5"/>
			<path fill-rule="evenodd" clip-rule="evenodd" fill="#FFFFFF" d="M142.7,191.9c0,1.5,1.2,2.8,2.8,2.8c1.5,0,2.8-1.2,2.8-2.8
				c0-1.5-1.2-2.8-2.8-2.8C144,189.1,142.7,190.4,142.7,191.9"/>
			<g>
				<defs>
					<path id="SVGID_31_" d="M248.8,224.8h10.9l11.9-10.4h-10.7v-35.7l-12.1,10.6V224.8z M276.7,224.8H296v-10.4h-7.4L276.7,224.8z
						 M260.9,162.8v-7h-12.1v21.3l0-3.7L260.9,162.8z"/>
				</defs>
				<clipPath id="SVGID_2_">
					<use xlink:href="#SVGID_31_"  overflow="visible"/>
				</clipPath>
				<g clip-path="url(#SVGID_2_)">
					<g>
						<defs>
							
								<rect id="SVGID_33_" x="232.1" y="156.9" transform="matrix(0.3196 -0.9476 0.9476 0.3196 5.0123 387.5728)" width="80.5" height="66.7"/>
						</defs>
						<clipPath id="SVGID_4_">
							<use xlink:href="#SVGID_33_"  overflow="visible"/>
						</clipPath>
						<g clip-path="url(#SVGID_4_)">
							<defs>
								
									<rect id="SVGID_35_" x="211.9" y="132.6" transform="matrix(0.3196 -0.9476 0.9476 0.3196 5.0114 387.5717)" width="120.9" height="115.5"/>
							</defs>
							<clipPath id="SVGID_6_">
								<use xlink:href="#SVGID_35_"  overflow="visible"/>
							</clipPath>
							<g clip-path="url(#SVGID_6_)">
								
									<image overflow="visible" width="617" height="632" xlink:href="4346CC03.jpg"  transform="matrix(0.24 0 0 0.24 198.3428 114.5654)">
								</image>
							</g>
						</g>
					</g>
				</g>
			</g>
			<g>
				<defs>
					<path id="SVGID_37_" d="M248.8,173.4l26-22.8c-0.1-0.3-0.1-0.6-0.1-0.9c0-1.8,1.4-3.2,3.2-3.2c1.8,0,3.2,1.4,3.2,3.2
						c0,1.8-1.4,3.2-3.2,3.2c-0.4,0-0.8-0.1-1.2-0.2l-27.8,24.4L248.8,173.4z"/>
				</defs>
				<clipPath id="SVGID_8_">
					<use xlink:href="#SVGID_37_"  overflow="visible"/>
				</clipPath>
				<g clip-path="url(#SVGID_8_)">
					<g>
						<defs>
							<polygon id="SVGID_39_" points="252.1,140.2 234.5,174 277.7,183.4 295.2,149.6 							"/>
						</defs>
						<clipPath id="SVGID_10_">
							<use xlink:href="#SVGID_39_"  overflow="visible"/>
						</clipPath>
						<g clip-path="url(#SVGID_10_)">
							<defs>
								<polygon id="SVGID_41_" points="240.7,128.2 214.4,179 289,195.4 315.4,144.6 								"/>
							</defs>
							<clipPath id="SVGID_12_">
								<use xlink:href="#SVGID_41_"  overflow="visible"/>
							</clipPath>
							<g clip-path="url(#SVGID_12_)">
								
									<image overflow="visible" width="422" height="280" xlink:href="4346CC01.jpg"  transform="matrix(0.24 0 0 0.24 214.3605 128.2322)">
								</image>
							</g>
						</g>
					</g>
				</g>
			</g>
			<path fill-rule="evenodd" clip-rule="evenodd" fill="#FFFFFF" d="M277.8,148.2c0.8,0,1.5,0.7,1.5,1.5c0,0.8-0.7,1.5-1.5,1.5
				c-0.8,0-1.5-0.7-1.5-1.5C276.3,148.9,277,148.2,277.8,148.2"/>
			<g>
				<defs>
					<path id="SVGID_43_" d="M260.9,178.6l-26,22.8c0.1,0.3,0.1,0.6,0.1,0.9c0,1.8-1.4,3.2-3.2,3.2c-1.8,0-3.2-1.4-3.2-3.2
						c0-1.8,1.4-3.2,3.2-3.2c0.4,0,0.8,0.1,1.2,0.2l27.8-24.4L260.9,178.6z"/>
				</defs>
				<clipPath id="SVGID_14_">
					<use xlink:href="#SVGID_43_"  overflow="visible"/>
				</clipPath>
				<g clip-path="url(#SVGID_14_)">
					<g>
						<defs>
							<polygon id="SVGID_45_" points="232,168.6 214.5,202.4 257.6,211.8 275.2,178 							"/>
						</defs>
						<clipPath id="SVGID_16_">
							<use xlink:href="#SVGID_45_"  overflow="visible"/>
						</clipPath>
						<g clip-path="url(#SVGID_16_)">
							<defs>
								<polygon id="SVGID_47_" points="220.7,156.6 194.3,207.4 269,223.8 295.4,173 								"/>
							</defs>
							<clipPath id="SVGID_18_">
								<use xlink:href="#SVGID_47_"  overflow="visible"/>
							</clipPath>
							<g clip-path="url(#SVGID_18_)">
								
									<image overflow="visible" width="422" height="280" xlink:href="4346CC07.jpg"  transform="matrix(0.24 0 0 0.24 194.2984 156.6488)">
								</image>
							</g>
						</g>
					</g>
				</g>
			</g>
			<path fill-rule="evenodd" clip-rule="evenodd" fill="#FFFFFF" d="M231.9,203.8c-0.8,0-1.5-0.7-1.5-1.5c0-0.8,0.7-1.5,1.5-1.5
				c0.8,0,1.5,0.7,1.5,1.5C233.4,203.1,232.7,203.8,231.9,203.8"/>
			<g>
				<defs>
					<path id="SVGID_49_" d="M272.5,224.8l21.2-18.7c-0.1-0.3-0.1-0.6-0.1-0.9c0-1.8,1.4-3.2,3.2-3.2s3.2,1.4,3.2,3.2
						c0,1.8-1.4,3.2-3.2,3.2c-0.4,0-0.8-0.1-1.2-0.2l-18.9,16.6H272.5z"/>
				</defs>
				<clipPath id="SVGID_20_">
					<use xlink:href="#SVGID_49_"  overflow="visible"/>
				</clipPath>
				<g clip-path="url(#SVGID_20_)">
					<g>
						<defs>
							<polygon id="SVGID_51_" points="275.3,197.3 260.4,222.5 297.2,229.5 312.2,204.4 							"/>
						</defs>
						<clipPath id="SVGID_22_">
							<use xlink:href="#SVGID_51_"  overflow="visible"/>
						</clipPath>
						<g clip-path="url(#SVGID_22_)">
							<defs>
								<polygon id="SVGID_53_" points="265.7,188.4 243.2,226.2 306.9,238.4 329.4,200.6 								"/>
							</defs>
							<clipPath id="SVGID_24_">
								<use xlink:href="#SVGID_53_"  overflow="visible"/>
							</clipPath>
							<g clip-path="url(#SVGID_24_)">
								
									<image overflow="visible" width="360" height="209" xlink:href="4346CC00.jpg"  transform="matrix(0.24 0 0 0.24 243.1867 188.4487)">
								</image>
							</g>
						</g>
					</g>
				</g>
			</g>
			<path fill-rule="evenodd" clip-rule="evenodd" fill="#FFFFFF" d="M296.8,203.8c0.8,0,1.5,0.7,1.5,1.5c0,0.8-0.7,1.5-1.5,1.5
				c-0.8,0-1.5-0.7-1.5-1.5C295.3,204.4,296,203.8,296.8,203.8"/>
			<g>
				<defs>
					<path id="SVGID_55_" d="M275.8,214.4L254.6,233c0.1,0.3,0.1,0.6,0.1,0.9c0,1.8-1.4,3.2-3.2,3.2c-1.8,0-3.2-1.4-3.2-3.2
						c0-1.8,1.4-3.2,3.2-3.2c0.4,0,0.8,0.1,1.2,0.2l18.9-16.6H275.8z"/>
				</defs>
				<clipPath id="SVGID_26_">
					<use xlink:href="#SVGID_55_"  overflow="visible"/>
				</clipPath>
				<g clip-path="url(#SVGID_26_)">
					<g>
						<defs>
							<polygon id="SVGID_57_" points="251.1,209.7 236.2,234.8 273,241.8 288,216.7 							"/>
						</defs>
						<clipPath id="SVGID_28_">
							<use xlink:href="#SVGID_57_"  overflow="visible"/>
						</clipPath>
						<g clip-path="url(#SVGID_28_)">
							<defs>
								<polygon id="SVGID_59_" points="241.5,200.8 219,238.5 282.7,250.7 305.2,212.9 								"/>
							</defs>
							<clipPath id="SVGID_30_">
								<use xlink:href="#SVGID_59_"  overflow="visible"/>
							</clipPath>
							<g clip-path="url(#SVGID_30_)">
								
									<image overflow="visible" width="359" height="209" xlink:href="4346CC0E.jpg"  transform="matrix(0.24 0 0 0.24 218.9901 200.7666)">
								</image>
							</g>
						</g>
					</g>
				</g>
			</g>
			<path fill-rule="evenodd" clip-rule="evenodd" fill="#FFFFFF" d="M251.5,235.4c-0.8,0-1.5-0.7-1.5-1.5c0-0.8,0.7-1.5,1.5-1.5
				c0.8,0,1.5,0.7,1.5,1.5C253,234.8,252.3,235.4,251.5,235.4"/>
		</g>
		<g>
			<g>
				<path fill="#00CCFF" d="M137,402c0.8,0,1.5,0.3,2,0.8c0.6,0.6,0.9,1.2,0.9,2.1c0,0.8-0.3,1.5-0.9,2.1c-0.6,0.6-1.3,0.8-2,0.8
					h-12.6v29.4c0,0.8-0.3,1.5-0.8,2c-0.6,0.6-1.2,0.9-2.1,0.9c-0.8,0-1.5-0.3-2-0.9c-0.6-0.6-0.9-1.3-0.9-2v-29.4h-12.4
					c-0.8,0-1.5-0.3-2.1-0.8c-0.6-0.6-0.9-1.2-0.9-2.1c0-0.8,0.3-1.5,0.9-2.1c0.6-0.6,1.3-0.8,2.1-0.8H137z"/>
			</g>
			<g>
				<path fill="#00CCFF" d="M176.6,402c3.6,0,6.6,0.4,8.9,1.1c2.3,0.7,4.1,1.7,5.4,2.8c1.3,1.2,2.1,2.5,2.6,3.9s0.6,2.9,0.6,4.3
					v13.8c0,1.4-0.2,2.8-0.7,4.3c-0.5,1.4-1.3,2.7-2.5,3.9c-1.2,1.2-2.9,2.1-5.1,2.9c-2.2,0.7-5,1.1-8.4,1.1h-10
					c-3.4,0-6.2-0.4-8.4-1.1c-2.2-0.7-3.9-1.7-5.1-2.9c-1.2-1.2-2.1-2.5-2.5-3.9c-0.5-1.4-0.7-2.8-0.7-4.3v-13.8
					c0-1.4,0.2-2.8,0.7-4.2c0.5-1.4,1.3-2.8,2.5-3.9c1.2-1.2,2.9-2.1,5.1-2.9c2.2-0.7,5-1.1,8.4-1.1H176.6z M177.2,434.3
					c2.4,0,4.4-0.2,5.8-0.6c1.4-0.4,2.5-0.9,3.3-1.6c0.8-0.6,1.3-1.3,1.5-2.1c0.2-0.7,0.3-1.5,0.3-2.2V414c0-1.3-0.3-2.3-1-3.1
					c-0.7-0.8-1.6-1.4-2.6-1.9c-1.1-0.4-2.2-0.8-3.5-0.9c-1.3-0.2-2.6-0.3-3.8-0.3h-9.9c-2.4,0-4.4,0.2-5.8,0.6
					c-1.4,0.4-2.5,0.9-3.3,1.5c-0.7,0.6-1.2,1.3-1.4,2.1c-0.2,0.8-0.3,1.5-0.3,2.1v13.8c0,0.7,0.1,1.4,0.3,2.2
					c0.2,0.7,0.7,1.4,1.4,2.1c0.7,0.6,1.8,1.2,3.3,1.6c1.4,0.4,3.4,0.6,5.8,0.6H177.2z"/>
			</g>
			<g>
				<path fill="#00CCFF" d="M265.9,402c0.8,0,1.5,0.3,2,0.9c0.6,0.6,0.9,1.3,0.9,2v32.3c0,0.8-0.3,1.5-0.9,2.1
					c-0.6,0.6-1.3,0.9-2,0.9c-0.8,0-1.5-0.3-2.1-0.9c-0.6-0.6-0.8-1.3-0.8-2.1v-13.3h-27.8v13.3c0,0.8-0.3,1.5-0.8,2.1
					c-0.5,0.6-1.2,0.9-2.1,0.9c-0.8,0-1.5-0.3-2-0.9c-0.6-0.6-0.9-1.3-0.9-2.1v-32.3c0-0.8,0.3-1.5,0.9-2c0.6-0.6,1.3-0.9,2-0.9
					c0.9,0,1.5,0.3,2.1,0.9c0.5,0.6,0.8,1.3,0.8,2v13.2H263v-13.2c0-0.8,0.3-1.5,0.8-2C264.4,402.2,265.1,402,265.9,402z"/>
			</g>
			<g>
				<path fill="#00CCFF" d="M305.7,402c3.5,0,6.3,0.4,8.5,1.1c2.2,0.7,3.9,1.7,5.1,2.9c1.2,1.2,2.1,2.5,2.5,3.9
					c0.4,1.4,0.7,2.9,0.7,4.2v23.1c0,0.8-0.3,1.5-0.9,2c-0.6,0.6-1.2,0.9-2,0.9c-0.8,0-1.5-0.3-2.1-0.9c-0.6-0.6-0.9-1.3-0.9-2v-8.6
					h-30.2v8.6c0,0.8-0.3,1.5-0.9,2c-0.6,0.6-1.2,0.9-2,0.9c-0.8,0-1.5-0.3-2.1-0.9c-0.6-0.6-0.9-1.3-0.9-2v-23.1
					c0-1.4,0.2-2.8,0.7-4.2c0.4-1.4,1.3-2.8,2.5-3.9c1.2-1.2,2.9-2.1,5.1-2.9c2.2-0.7,5-1.1,8.5-1.1H305.7z M316.7,422.9v-8.8
					c0-0.7-0.1-1.4-0.3-2.1c-0.2-0.8-0.7-1.5-1.5-2.1c-0.8-0.6-1.9-1.1-3.3-1.5c-1.4-0.4-3.4-0.6-5.8-0.6h-8.2
					c-2.5,0-4.4,0.2-5.8,0.6c-1.4,0.4-2.6,0.9-3.3,1.5c-0.8,0.6-1.3,1.3-1.5,2.1c-0.2,0.8-0.3,1.5-0.3,2.1v8.8H316.7z"/>
			</g>
			<g>
				<path fill="#00CCFF" d="M351.1,407.8c-2.4,0-4.4,0.2-5.8,0.6c-1.4,0.4-2.5,0.9-3.3,1.5c-0.8,0.6-1.3,1.3-1.5,2.1
					c-0.2,0.8-0.3,1.5-0.3,2.1V428c0,0.7,0.1,1.4,0.3,2.1c0.2,0.8,0.7,1.4,1.5,2.1c0.8,0.6,1.9,1.1,3.3,1.5c1.4,0.4,3.4,0.6,5.8,0.6
					H372c0.8,0,1.5,0.3,2.1,0.9c0.6,0.6,0.8,1.3,0.8,2c0,0.8-0.3,1.5-0.8,2.1c-0.6,0.6-1.2,0.8-2.1,0.8h-20.9
					c-3.5,0-6.3-0.4-8.5-1.1c-2.2-0.7-3.9-1.7-5.1-2.9c-1.2-1.2-2-2.5-2.5-3.9c-0.4-1.4-0.7-2.8-0.7-4.3v-13.8
					c0-1.4,0.2-2.8,0.7-4.2c0.4-1.4,1.3-2.8,2.5-3.9c1.2-1.2,2.9-2.1,5.1-2.9c2.2-0.7,5-1.1,8.5-1.1H372c0.8,0,1.5,0.3,2.1,0.9
					c0.6,0.6,0.8,1.3,0.8,2c0,0.8-0.3,1.5-0.8,2.1c-0.6,0.6-1.2,0.8-2.1,0.8H351.1z"/>
			</g>
			<g>
				<path fill="#00CCFF" d="M422.6,402c0.8,0,1.5,0.3,2.1,0.9c0.6,0.6,0.8,1.3,0.8,2v6.9c0,1.6-0.3,3.3-1,4.9
					c-0.6,1.7-1.9,3.1-3.8,4.3c0.9,0.6,1.7,1.3,2.3,2c0.6,0.7,1.1,1.5,1.4,2.3c0.4,0.8,0.6,1.6,0.8,2.4c0.1,0.8,0.2,1.6,0.2,2.4v6.8
					c0,0.8-0.3,1.5-0.8,2.1c-0.6,0.6-1.2,0.8-2.1,0.8c-0.8,0-1.5-0.3-2.1-0.8c-0.6-0.6-0.8-1.2-0.8-2.1v-6.8c0-0.7-0.1-1.4-0.3-2.1
					c-0.2-0.7-0.7-1.4-1.5-2.1c-0.8-0.6-1.9-1.1-3.3-1.6c-1.4-0.4-3.4-0.6-5.8-0.6h-17v13.3c0,0.8-0.3,1.5-0.8,2
					c-0.6,0.6-1.2,0.9-2.1,0.9c-0.8,0-1.5-0.3-2.1-0.9c-0.6-0.6-0.8-1.3-0.8-2v-32.3c0-0.8,0.3-1.5,0.8-2c0.6-0.6,1.2-0.9,2.1-0.9
					c0.8,0,1.5,0.3,2.1,0.9c0.6,0.6,0.8,1.3,0.8,2v13.2h17c2.4,0,4.4-0.2,5.8-0.6c1.4-0.4,2.5-0.9,3.3-1.6c0.8-0.6,1.3-1.3,1.5-2.1
					c0.2-0.7,0.3-1.4,0.3-2.1v-6.9c0-0.8,0.3-1.5,0.8-2C421.1,402.2,421.8,402,422.6,402z"/>
			</g>
			<path fill="#00C5BB" d="M330.6,335.8h-12.7h-0.1h-11.4c-1.2,0-2.2,0.4-3.1,1.3c-0.9,0.9-1.3,1.9-1.3,3c0,1.2,0.4,2.2,1.3,3.1
				c0.9,0.8,1.9,1.2,3.1,1.2h7.2h8.6h4.2h4.1h7.4c3.6,0,6.5,0.3,8.7,0.9c2.1,0.6,3.8,1.4,4.9,2.3c1.1,0.9,1.9,1.9,2.2,3.1
				c0.3,1.1,0.5,2.2,0.5,3.2v2.8c0,1-0.2,2-0.5,3.1c-0.3,1.1-1.1,2.1-2.2,3.1c-1.1,0.9-2.8,1.7-4.9,2.3c-2.1,0.6-5,0.9-8.7,0.9
				h-17.5h-9.8h-8.6v22c0,1.2,0.4,2.2,1.2,3c0.8,0.9,1.8,1.3,3.1,1.3c1.2,0,2.2-0.4,3-1.3c0.9-0.9,1.3-1.9,1.3-3v-13.4H338
				c0.5,0,1.1,0,1.6,0c0.5,0,1-0.1,1.5-0.1h0.4l13.7,16.3l-0.1-0.1c0.9,1.1,2,1.6,3.4,1.6c0.9,0,1.8-0.3,2.6-0.8
				c0.9-0.8,1.5-1.8,1.6-3c0.1-1.2-0.2-2.3-0.9-3.3l-10.6-12.6c2.4-0.8,4.3-1.8,5.8-3.1c1.5-1.2,2.7-2.5,3.5-4
				c0.9-1.4,1.4-2.9,1.8-4.5c0.3-1.5,0.5-3.1,0.5-4.5v-2.8c0-2-0.3-4.1-1-6.3c-0.7-2.1-1.9-4.1-3.8-5.9c-1.8-1.8-4.3-3.2-7.5-4.3
				c-3.2-1.1-7.4-1.6-12.5-1.6H330.6z M276.8,366.8v-13c0-1-0.2-2.1-0.5-3.2c-0.3-1.1-1.1-2.2-2.2-3.1c-1.1-0.9-2.8-1.7-4.9-2.3
				c-2.1-0.6-5-0.9-8.7-0.9h-12.2c-3.6,0-6.5,0.3-8.7,0.9c-2.1,0.6-3.8,1.4-4.9,2.3c-1.1,0.9-1.9,1.9-2.2,3.1
				c-0.3,1.1-0.5,2.2-0.5,3.2v13H276.8z M260.5,335.8c5.2,0,9.4,0.6,12.6,1.6c3.2,1.1,5.8,2.5,7.6,4.3c1.8,1.8,3.1,3.7,3.7,5.9
				c0.7,2.1,1,4.2,1,6.3v34.2c0,1.2-0.4,2.2-1.3,3c-0.9,0.9-1.8,1.3-3,1.3c-1.2,0-2.2-0.4-3.1-1.3c-0.8-0.9-1.3-1.9-1.3-3v-12.7
				h-44.8v12.7c0,1.2-0.4,2.2-1.3,3c-0.9,0.9-1.8,1.3-3,1.3h-0.1h0h-0.1h-56.6c-5.2,0-9.4-0.5-12.6-1.6c-3.2-1.1-5.7-2.5-7.5-4.3
				c-1.8-1.8-3.1-3.7-3.7-5.8c-0.7-2.1-1-4.2-1-6.3v-20.4c0-2,0.3-4.1,1-6.3c0.7-2.1,1.9-4.1,3.7-5.9c1.8-1.8,4.3-3.2,7.5-4.3
				c3.2-1.1,7.4-1.6,12.6-1.6h32c1.2,0,2.2,0.4,3.1,1.3c0.9,0.9,1.3,1.9,1.3,3c0,1.2-0.4,2.2-1.3,3.1c-0.9,0.8-1.9,1.2-3.1,1.2h-32
				c-3.6,0-6.5,0.3-8.7,0.9c-2.1,0.6-3.8,1.4-4.9,2.3c-1.1,0.9-1.9,2-2.2,3.1c-0.3,1.1-0.5,2.2-0.5,3.2v5.1h48.2
				c1.2,0,2.2,0.4,3.1,1.3c0.9,0.9,1.3,1.8,1.3,3c0,1.2-0.4,2.2-1.3,3.1c-0.9,0.8-1.9,1.3-3.1,1.3h-48.2v6.7c0,1,0.2,2,0.5,3.2
				c0.3,1.1,1.1,2.1,2.2,3.1c1.1,0.9,2.8,1.7,4.9,2.3c2.1,0.6,5,0.9,8.7,0.9h52.4v-29.9c0-2,0.3-4.1,1-6.3c0.7-2.1,1.9-4.1,3.7-5.9
				c1.8-1.8,4.3-3.2,7.6-4.3c3.2-1.1,7.4-1.6,12.6-1.6H260.5z M435.1,335.8c1.1,0,2.1,0.4,3,1.3c0.8,0.9,1.3,1.9,1.3,3v48
				c0,0.1,0,0.1,0,0.1c0,0,0,0.1,0,0.2l-0.2,1l-0.3,0.6c0,0.3-0.2,0.7-0.7,1.1c-0.2,0.2-0.6,0.5-1.3,0.9h0.2
				c-0.7,0.3-1.3,0.4-1.9,0.4c-0.8,0-1.7-0.4-2.9-1.1L387.5,350v38.1c0,1.2-0.4,2.2-1.3,3c-0.9,0.9-1.9,1.3-3,1.3
				c-1.2,0-2.2-0.4-3-1.3c-0.9-0.9-1.3-1.9-1.3-3v-48.7v0.1c0,0.1,0,0.1,0,0.1c0,0,0,0.1,0,0.1c0-0.4,0-0.7,0.1-0.9
				c0.1-0.2,0.1-0.4,0.2-0.5c0.1-0.1,0.1-0.2,0.2-0.3c0.1-0.3,0.3-0.5,0.6-0.8l0.7-0.5c0.3-0.4,0.6-0.6,0.9-0.6
				c0.3-0.1,0.6-0.2,0.7-0.2c0.2-0.1,0.5-0.2,0.9-0.2c0.1,0,0.1,0,0.1,0c0,0,0.1,0,0.3,0c0.1,0.1,0.2,0.1,0.2,0.1h0.3l0.9,0.2
				c0.1,0.1,0.1,0.1,0.2,0.1c0.1,0-0.1,0-0.7,0l1.1,0.2l45,41.8v-38.2c0-1.2,0.4-2.2,1.3-3C432.9,336.2,433.9,335.8,435.1,335.8z
				 M382.7,336h-0.2h0.1H382.7z M133.8,383.8c1.2,0,2.2,0.4,3.1,1.3c0.8,0.9,1.2,1.9,1.2,3c0,1.2-0.4,2.2-1.2,3.1
				c-0.8,0.8-1.8,1.2-3.1,1.2h-19.5c-5.2,0-9.4-0.5-12.6-1.6c-3.2-1.1-5.7-2.5-7.5-4.2c-1.8-1.7-3.1-3.7-3.7-5.8
				c-0.7-2.1-1-4.2-1-6.3v-34.2c0-1.2,0.4-2.2,1.2-3.1c0.8-0.8,1.8-1.2,3.1-1.2c1.2,0,2.2,0.4,3,1.2c0.9,0.8,1.3,1.8,1.3,3.1v34.2
				c0,1,0.2,2,0.5,3.2c0.3,1.1,1.1,2.1,2.2,3.1c1.1,0.9,2.8,1.7,4.9,2.3c2.1,0.6,5,0.9,8.7,0.9H133.8z"/>
		</g>
	</g>
</g>
</svg>
